<svg xmlns="http://www.w3.org/2000/svg" aria-hidden="true" style="position:absolute;width:0;height:0;overflow:hidden">
  <defs>
    <symbol id="icon-Calendar" viewBox="0 0 33 32">
      <path fill="#fff" d="M2.783 10.666C2.783 6.984 5.898 4 9.74 4h13.913c3.842 0 6.957 2.985 6.957 6.666v11.999c0 3.682-3.115 6.666-6.957 6.666H9.74c-3.842 0-6.957-2.985-6.957-6.666V10.666zm6.956-4c-2.305 0-4.174 1.791-4.174 4v11.999c0 2.209 1.869 4 4.174 4h13.913c2.305 0 4.174-1.791 4.174-4V10.666c0-2.209-1.869-4-4.174-4H9.739z" style="fill:var(--color1, #fff)"/>
      <path fill="#fff" d="M11.13 2.667c.768 0 1.391.597 1.391 1.333v4c0 .736-.623 1.333-1.391 1.333S9.739 8.736 9.739 8V4c0-.736.623-1.333 1.391-1.333zM8.348 13.333c0-.736.623-1.333 1.391-1.333h13.913c.768 0 1.391.597 1.391 1.333s-.623 1.333-1.391 1.333H9.739c-.768 0-1.391-.597-1.391-1.333zM20.87 22.665c0-.736.623-1.333 1.391-1.333h1.391c.768 0 1.391.597 1.391 1.333s-.623 1.333-1.391 1.333h-1.391c-.768 0-1.391-.597-1.391-1.333zM22.261 2.667c.768 0 1.391.597 1.391 1.333v4c0 .736-.623 1.333-1.391 1.333S20.87 8.736 20.87 8V4c0-.736.623-1.333 1.391-1.333z" style="fill:var(--color1, #fff)"/>
    </symbol>
    <symbol id="icon-Calendar_check" viewBox="0 0 32 32">
      <path fill="none" stroke="#fff" stroke-linecap="round" stroke-width="2.667" d="M10.667 4v4M9.333 28h13.333a5.333 5.333 0 0 0 5.333-5.333v-12a5.333 5.333 0 0 0-5.333-5.333H9.333A5.333 5.333 0 0 0 4 10.667v12A5.333 5.333 0 0 0 9.333 28zM21.333 4v4.001" style="stroke:var(--color1, #fff)"/>
      <path fill="none" stroke="#fff" stroke-linecap="round" stroke-linejoin="round" stroke-width="2.667" d="m20 14.667-5 5.334-3-2.425" style="stroke:var(--color1, #fff)"/>
    </symbol>
    <symbol id="icon-clock_circle" viewBox="0 0 32 32">
      <path fill="none" stroke="#fff" stroke-linecap="round" stroke-linejoin="round" stroke-width="2.667" d="M16 4c-3.314 0-6.314 1.343-8.485 3.515S4 12.687 4 16c0 3.314 1.343 6.314 3.515 8.485S12.687 28 16 28s6.314-1.343 8.485-3.515C26.656 22.313 28 19.313 28 16s-1.343-6.314-3.515-8.485A11.962 11.962 0 0 0 16 4zM16 10.667v5.334M16 16l2.667 2.667" style="stroke:var(--color1, #fff)"/>
    </symbol>
    <symbol id="icon-marker" viewBox="0 0 32 32">
      <path fill="#d99400" d="m15.944 32.01-.929-.797C13.734 30.14 2.546 20.478 2.546 13.41 2.546 6.01 8.545.011 15.945.011S29.344 6.01 29.344 13.41c0 7.068-11.188 16.73-12.464 17.808l-.935.791zm0-29.101C10.147 2.916 5.449 7.613 5.443 13.41c0 4.44 6.883 11.533 10.501 14.78 3.618-3.248 10.501-10.345 10.501-14.78-.007-5.797-4.704-10.495-10.501-10.501z" style="fill:var(--color2, #d99400)"/>
      <path fill="#d99400" d="M15.944 18.721a5.311 5.311 0 1 1 0-10.622 5.311 5.311 0 0 1 0 10.622zm0-7.966a2.656 2.656 0 1 0 0 5.312 2.656 2.656 0 0 0 0-5.312z" style="fill:var(--color2, #d99400)"/>
    </symbol>
    <symbol id="icon-team" viewBox="0 0 24 32">
      <path fill="none" stroke="#fff" stroke-width="3.048" d="M1.524 26.221c0-3.226 2.729-5.841 6.095-5.841h9.143c3.366 0 6.095 2.615 6.095 5.841 0 1.613-1.364 2.92-3.048 2.92H4.571c-1.683 0-3.048-1.308-3.048-2.92zM18.286 8.698c0 3.226-2.729 5.841-6.095 5.841s-6.095-2.615-6.095-5.841 2.729-5.841 6.095-5.841 6.095 2.615 6.095 5.841z" style="stroke:var(--color1, #fff)"/>
    </symbol>
    <symbol id="icon-Arrow_Left" viewBox="0 0 32 32">
      <path fill="#b1b1b1" d="M14.276 5.724a1.333 1.333 0 0 1 0 1.886l-7.057 7.057H28a1.333 1.333 0 0 1 0 2.666H7.219l7.057 7.057a1.333 1.333 0 1 1-1.886 1.886l-9.333-9.333a1.333 1.333 0 0 1 0-1.886l9.333-9.333a1.333 1.333 0 0 1 1.886 0z" style="fill:var(--color3, #b1b1b1)"/>
    </symbol>
    <symbol id="icon-Arrow_Right" viewBox="0 0 32 32">
      <path fill="#b1b1b1" d="M17.724 5.724a1.333 1.333 0 0 1 1.886 0l9.333 9.333a1.333 1.333 0 0 1 0 1.886l-9.333 9.333a1.333 1.333 0 1 1-1.886-1.886l7.057-7.057H4a1.333 1.333 0 0 1 0-2.666h20.781L17.724 7.61a1.333 1.333 0 0 1 0-1.886z" style="fill:var(--color3, #b1b1b1)"/>
    </symbol>
    <symbol id="icon-location" viewBox="0 0 32 32">
      <path fill="#fff" d="M16 5.333c-2.099 0-4.127.877-5.633 2.461C8.859 9.381 8 11.546 8 13.818c0 3.307 2.048 6.535 4.324 9.062A30.8 30.8 0 0 0 16 26.326a30.908 30.908 0 0 0 3.676-3.446C21.952 20.353 24 17.125 24 13.818c0-2.271-.858-4.437-2.367-6.024C20.127 6.21 18.099 5.333 16 5.333zM16 28l-.766 1.091-.003-.002-.007-.005-.025-.018-.088-.064c-.075-.055-.183-.134-.318-.237a33.654 33.654 0 0 1-4.45-4.1c-2.391-2.655-5.009-6.518-5.009-10.847 0-2.936 1.108-5.765 3.101-7.861 1.995-2.098 4.715-3.29 7.566-3.29s5.571 1.192 7.566 3.29c1.992 2.096 3.101 4.925 3.101 7.861 0 4.329-2.618 8.192-5.009 10.847a33.654 33.654 0 0 1-4.45 4.1c-.135.103-.243.182-.318.237l-.088.064-.025.018-.007.005-.002.002s-.002.001-.767-1.091zm0 0 .766 1.092a1.336 1.336 0 0 1-1.532 0L16 28.001z" style="fill:var(--color1, #fff)"/>
      <path fill="#fff" d="M16 10.667a2.667 2.667 0 1 0 0 5.334 2.667 2.667 0 0 0 0-5.334zm-5.333 2.666a5.333 5.333 0 1 1 10.666 0 5.333 5.333 0 0 1-10.666 0z" style="fill:var(--color1, #fff)"/>
    </symbol>
    <symbol id="icon-logo-header" viewBox="0 0 51 32">
      <path d="M29.75 13.63c5.497 0 9.953-.408 9.953-.911s-4.456-.911-9.953-.911c-5.497 0-9.953.408-9.953.911s4.456.911 9.953.911z" opacity=".47" style="fill:var(--color4, #000)"/>
      <path fill="#5d5d5d" d="m35.32 10.276-.12.075h-.139a1.786 1.786 0 0 0-.423-.766c-.375-.403-.578-.902-.451-1.406l.32.999c.08.248.304.43.576.466l.237.031c.096.391 0 .6 0 .6zM37.125 6.412c-.05.498-.738.682-.738.682-.729.251-1.238 0-1.238 0 .1-.055.204-.105.308-.151a8.217 8.217 0 0 1 1.669-.531z" style="fill:var(--color5, #5d5d5d)"/>
      <path d="M24.934 9.545a.22.22 0 0 1-.127-.135c-.171-.517-.894-3.038.521-5.123 0 0 2.186-3.286 6.701-3.094 0 0 3.319.019 4.946 2.988.033.06.034.132.002.192a.683.683 0 0 0-.046.568l.409 1.301a.115.115 0 0 1-.091.145 8.244 8.244 0 0 0-1.792.556c-.46.206-.91.482-1.147.923-.328.608-.124 1.233.328 1.72.445.479.608 1.139.341 1.736-.148.331-.407.615-.685.855-.461.4-1.015.698-1.59.926-.676.268-1.41.24-2.067-.06a29.554 29.554 0 0 0-1.647-.707 4.482 4.482 0 0 0-.581-.178l-.495-.115a.224.224 0 0 1-.174-.273l.002-.007a.211.211 0 0 0-.004-.122c-.08-.239-.404-1.068-1.131-1.395l-1.674-.701z" style="fill:var(--color4, #000)"/>
      <path fill="#1e1e1e" d="M27.753 11.914c-.001.112-.113.195-.228.168l-2.171-.508a.231.231 0 0 1-.164-.139l-.048-.124a.11.11 0 0 1 .007-.091.107.107 0 0 0 .01-.082l-.414-1.401a.19.19 0 0 1 .055-.195l.055-.052a.244.244 0 0 0 .079.055l1.674.701c.727.327 1.05 1.155 1.131 1.395.013.04.015.082.004.122l-.002.007c-.014.05-.008.1.012.144z" opacity=".84" style="fill:var(--color6, #1e1e1e)"/>
      <path fill="#1e1e1e" d="m26.05 10.501.145.565a.031.031 0 0 0 .034.022l.38-.038a.045.045 0 0 0 .042-.042c.001-.056-.019-.165-.157-.279a.603.603 0 0 0-.089-.06l-.326-.187c-.014-.008-.032.004-.028.019zM31.662 12.509c.142 0 .257-.109.257-.243s-.115-.243-.257-.243c-.142 0-.257.109-.257.243s.115.243.257.243z" opacity=".84" style="fill:var(--color6, #1e1e1e)"/>
      <path fill="#5d5d5d" d="M31.738 12.266c0 .04-.034.072-.076.072s-.076-.032-.076-.072c0-.04.034-.072.076-.072s.076.032.076.072z" style="fill:var(--color5, #5d5d5d)"/>
      <path fill="#1e1e1e" d="M32.971 11.98c0 .134-.115.243-.257.243s-.257-.109-.257-.243.115-.243.257-.243.257.109.257.243z" opacity=".84" style="fill:var(--color6, #1e1e1e)"/>
      <path fill="#5d5d5d" d="M32.79 11.98c0 .04-.034.072-.076.072s-.076-.032-.076-.072c0-.04.034-.072.076-.072s.076.032.076.072z" style="fill:var(--color5, #5d5d5d)"/>
      <path fill="#f3fbff" d="m28.915 9.164.195.551c.01.028.029.052.056.067l.3.181c.094.057.216-.013.208-.118l-.053-.638a.129.129 0 0 0-.095-.112 3.33 3.33 0 0 0-.462-.099c-.1-.015-.181.076-.149.167zM30 9.371l.206.901c.025.11.096.205.197.265l.624.368c.29.171.669.114.889-.134l.234-.265a.265.265 0 0 0-.102-.422l-1.91-.819c-.074-.032-.156.03-.138.106z" style="fill:var(--color7, #f3fbff)"/>
      <path d="m39.655 9.737.01-.013c.117-.165-.048-.38-.251-.335-.884.199-2.527.016-2.984-.041a.164.164 0 0 1-.143-.129l-.504-2.566a.12.12 0 0 1 .093-.139l1.907-.479a.186.186 0 0 0 .144-.177.158.158 0 0 0-.004-.038.193.193 0 0 0-.239-.138l-3.547.893c-.259.065-.481.22-.624.434l-1.61 2.422a.227.227 0 0 0 .087.33l1.18.629c.152.081.321.128.495.139l2.192.13a.149.149 0 0 1 .142.126l.16 1.193c.027.364.325.546.325.546.4.219 1.355.345 1.762.39.169.019.34.016.507-.012.078-.013.138-.029.185-.044a.266.266 0 0 0 .181-.2l.409-2.077a.272.272 0 0 1 .066-.128.218.218 0 0 0 .031-.269.255.255 0 0 1-.034-.145l.014-.181a.235.235 0 0 1 .048-.124zm-5.807-2.465.134-.182a.307.307 0 0 1 .171-.114l1.057-.274c.051-.013.104.018.113.068l.446 2.443c.013.068-.048.128-.12.12l-.424-.048a.33.33 0 0 1-.28-.222l-.392-1.224a.601.601 0 0 0-.569-.407l-.051-.001c-.085-.001-.134-.092-.085-.158zm1.961 3.041-2.096-.16a1.435 1.435 0 0 1-.564-.163l-.682-.362a.104.104 0 0 1-.042-.147l.986-1.554a.227.227 0 0 1 .192-.103h.287c.108 0 .204.067.236.165l.381 1.189c.08.248.304.43.576.466l.692.092a.093.093 0 0 1 .082.079l.056.395c.008.058-.042.108-.104.103zm3.314.396-.297 1.733a.136.136 0 0 1-.13.109 4.927 4.927 0 0 1-1.938-.305.315.315 0 0 1-.204-.26l-.124-1.171c-.007-.065.048-.12.116-.118a15.9 15.9 0 0 0 2.457-.106c.072-.009.132.049.12.117zm.044-.595a.106.106 0 0 1-.075.091c-.641.209-2.156.137-2.557.114a.116.116 0 0 1-.11-.099l-.037-.282c-.01-.075.056-.139.136-.131.394.038.949.086 1.45.079.494-.007.938-.057 1.128-.081.05-.006.093.033.088.08l-.024.229z" style="fill:var(--color4, #000)"/>
      <path d="M35.724 8.968a11.656 11.656 0 0 1-.163-.018.66.66 0 0 1-.569-.459l-.315-1.075c.09-.079.187-.149.289-.214l.347 1.204a.306.306 0 0 0 .257.213l.093.012.061.338zM39.613 9.432a.24.24 0 0 0-.2-.042 3.807 3.807 0 0 1-.563.075c-.401-.157-1.656-.326-2.602-.437l-.065-.331 1.977.293c.247.037.492.085.733.147.679.174.721.296.721.296zM39.191 9.886l-.024.229a.106.106 0 0 1-.075.091 1.61 1.61 0 0 1-.146.04c-.236-.137-2.07-.401-2.16-.414.358.031.791.061 1.189.055.3-.005.582-.024.799-.045h.001c.279.185.297-.032.297-.032l.031-.004c.05-.006.093.033.088.08zM39.123 10.709l-.297 1.733a.134.134 0 0 1-.097.104c.002-.076-.205-.161-.205-.161l-2.018-.853-.076-.716a.106.106 0 0 1 .043-.095l.074-.023.025.362a.346.346 0 0 0 .219.293l1.836.746c.061.025.131-.012.141-.074l.236-1.433c.072-.009.132.049.12.117z" style="fill:var(--color4, #000)"/>
      <path d="M38.035 6.118a.167.167 0 0 0-.126.113c-.037.132-.151.18-.151.18l-.374.117a.21.21 0 0 1-.258-.117l.124-.025a.115.115 0 0 0 .091-.145l-.409-1.302a.683.683 0 0 1 .046-.568.198.198 0 0 0 .023-.111h.195a.31.31 0 0 1 .28.168l.068.136c.007.014.022.023.039.023s.032.009.039.023l.112.222c.015.03.048.05.084.05a.09.09 0 0 1 .082.048l.339.63a.537.537 0 0 1 .065.209c.02.239-.148.32-.268.348z" opacity=".84" style="fill:var(--color4, #000)"/>
      <path d="M31.902 4.017c.493.194 1.6.748 2.358 2.012a.308.308 0 0 0 .342.133l1.863-.494a.283.283 0 0 0 .209-.349c-.216-.735-1.046-2.716-3.777-3.146a.394.394 0 0 0-.406.195l-.716 1.325c-.066.122-.007.271.127.324zM24.902 7.132c.132-1.214.668-2.425 1.567-3.304 1.02-.998 2.462-1.516 3.841-1.885l.215-.056c.037-.01.052-.052.028-.081l-.214-.249a.075.075 0 0 0-.071-.024 9.329 9.329 0 0 0-2.281.832c-1.242.638-2.346 1.575-2.909 2.828-.263.585-.413 1.316-.257 1.943.01.043.077.039.081-.005z" style="fill:var(--color4, #000)"/>
      <path fill="#5d5d5d" d="M28.691 12.033c-.011-.001-.014.014-.004.017.745.197 1.417.544 2.128.821.23.09.481.138.728.152.724.041 1.447-.288 2.028-.672.484-.319.975-.804 1.104-1.368a.043.043 0 0 0-.043-.052h-.107a.044.044 0 0 0-.042.028c-.221.618-.741 1.036-1.314 1.363-.506.288-1.086.485-1.684.438a4.408 4.408 0 0 1-1.145-.273c-.289-.105-.576-.217-.874-.3a5.088 5.088 0 0 0-.775-.155z" style="fill:var(--color5, #5d5d5d)"/>
      <path fill="#5d5d5d" d="m29.11 10.788 1.866.669c.278.1.582.111.868.033l.072-.02c.35-.095.673-.263.946-.491l.102-.085a.188.188 0 0 0 .066-.116l.017-.114a.172.172 0 0 0-.092-.176l-.44-.238c-.026-.014-.058.008-.051.036a.4.4 0 0 1-.092.352l-.318.359a.826.826 0 0 1-.33.226.88.88 0 0 1-.553.022 9.577 9.577 0 0 0-.53-.137l-1.522-.345c-.017-.004-.025.02-.008.026zM31.608 9.395l.169-.273a.046.046 0 0 0-.03-.069c-.378-.092-2.362-.557-3.819-.496-.033.001-.034.048-.001.051.706.061 2.358.255 3.617.806.023.01.051.002.064-.019zM24.969 8.911a7.516 7.516 0 0 1-.172-1.258c-.001-.016.023-.021.029-.005.11.32.508 1.291 1.407 1.816.027.016.008.055-.022.047-.278-.077-.763-.23-1.116-.434a.259.259 0 0 1-.125-.165z" style="fill:var(--color5, #5d5d5d)"/>
      <path d="m32.188 8.93 1.015.583a.46.46 0 0 0 .615-.144.41.41 0 0 0-.165-.584l-1.025-.542a.064.064 0 0 0-.082.02l-.378.588a.055.055 0 0 0 .021.079z" style="fill:var(--color4, #000)"/>
      <path fill="#1d1d1b" d="M33.476 9.432c.142 0 .257-.109.257-.243s-.115-.243-.257-.243-.257.109-.257.243a.25.25 0 0 0 .257.243z" style="fill:var(--color8, #1d1d1b)"/>
      <path d="M33.476 9.26c.042 0 .076-.032.076-.072s-.034-.072-.076-.072-.076.032-.076.072c0 .04.034.072.076.072z" style="fill:var(--color4, #000)"/>
      <path fill="#2a2a2a" d="M33.474 6.027c0 .18-.154.325-.344.325s-.344-.146-.344-.325c0-.18.154-.325.344-.325s.344.146.344.325z" style="fill:var(--color9, #2a2a2a)"/>
      <path fill="#5d5d5d" d="M33.37 6.027c0 .125-.107.227-.24.227s-.24-.102-.24-.227.107-.227.24-.227.24.102.24.227z" style="fill:var(--color5, #5d5d5d)"/>
      <path fill="#2a2a2a" d="M33.28 6.027c0 .078-.067.142-.15.142s-.15-.063-.15-.142c0-.078.067-.142.15-.142s.15.063.15.142z" style="fill:var(--color9, #2a2a2a)"/>
      <path fill="#1e1e1e" d="M29.485 11.482c0 .18-.154.325-.344.325s-.344-.146-.344-.325.154-.325.344-.325c.19 0 .344.146.344.325z" style="fill:var(--color6, #1e1e1e)"/>
      <path fill="#353535" d="M29.381 11.482c0 .125-.107.227-.24.227s-.24-.102-.24-.227.108-.227.24-.227.24.102.24.227z" style="fill:var(--color10, #353535)"/>
      <path fill="#1e1e1e" d="M29.291 11.482c0 .078-.067.142-.15.142s-.15-.063-.15-.142c0-.078.067-.142.15-.142s.15.063.15.142zM33.818 11.3c0 .18-.154.325-.344.325s-.344-.146-.344-.325.154-.325.344-.325c.19 0 .344.146.344.325z" style="fill:var(--color6, #1e1e1e)"/>
      <path fill="#363636" d="M33.714 11.3c0 .125-.108.227-.24.227s-.24-.102-.24-.227.107-.227.24-.227.24.102.24.227z" style="fill:var(--color11, #363636)"/>
      <path fill="#1e1e1e" d="M33.624 11.3c0 .078-.067.142-.15.142s-.15-.063-.15-.142c0-.078.067-.142.15-.142s.15.064.15.142z" style="fill:var(--color6, #1e1e1e)"/>
      <path fill="#1e1e1e" d="M26.413 3.861a7.464 7.464 0 0 1-.635 1.563c-.848 1.587-2.156 2.91-3.743 3.859-.527.315-1.014.554-1.46.734-.323.13-.623.23-.901.304l-.067.018.003-.026a6.12 6.12 0 0 1 .23-.992 7.563 7.563 0 0 1 .925-1.884 8.404 8.404 0 0 1 1.196-1.417c1.509-1.431 3.128-1.987 4.452-2.158z" opacity=".84" style="fill:var(--color6, #1e1e1e)"/>
      <path fill="#1e1e1e" d="M29.204 4.063c.967 3.088-2.605 6.355-2.605 6.355-1.302 1.076-2.436 1.724-3.381 2.106-.323.13-.623.23-.901.304-1.568.421-2.418.059-2.418.059-.055-.023-.111-.31-.128-.368a5.02 5.02 0 0 1-.163-2.179l.067-.018a7.72 7.72 0 0 0 .901-.304c.446-.18.933-.419 1.46-.734 1.588-.949 2.895-2.271 3.743-3.859a7.464 7.464 0 0 0 .635-1.563c1.601-.207 2.77.148 2.791.201z" opacity=".84" style="fill:var(--color6, #1e1e1e)"/>
      <path fill="#4b4b4b" d="M29.204 4.063c.027.048 1.754 3.149-1.979 6.946l-.005-.003.004.004c-3.973 3.512-7.223 1.928-7.324 1.878.089.036 2.527.976 6.699-2.47 0 0 3.572-3.266 2.605-6.354zM29 4.047a.06.06 0 0 1-.052.015c-.055-.01-.112-.018-.169-.026-.032-.004-.054-.032-.05-.062s.034-.051.066-.047c.059.007.117.016.175.026.032.006.053.034.047.064a.056.056 0 0 1-.016.029zm-9.128 8.637a.067.067 0 0 1-.029.015.059.059 0 0 1-.07-.042 3.69 3.69 0 0 1-.034-.165c-.005-.03.016-.059.048-.064s.062.015.067.045c.01.055.021.108.033.159a.054.054 0 0 1-.016.051zm8.783-8.681a.06.06 0 0 1-.046.016c-.056-.005-.114-.008-.171-.011-.032-.001-.057-.027-.056-.058s.029-.054.061-.053c.059.002.118.006.176.011.032.003.056.03.053.06a.056.056 0 0 1-.017.034zm-8.841 8.356a.067.067 0 0 1-.034.016.058.058 0 0 1-.065-.048 4.071 4.071 0 0 1-.018-.167c-.003-.03.021-.057.053-.06s.06.02.063.051l.017.162a.053.053 0 0 1-.017.046zm8.493-8.371a.06.06 0 0 1-.041.016c-.057 0-.115.001-.172.003-.032.001-.059-.023-.06-.053s.024-.056.056-.057l.177-.003c.032 0 .058.025.058.055a.056.056 0 0 1-.017.039zm-8.522 8.042a.06.06 0 0 1-.039.016.058.058 0 0 1-.061-.053 3.077 3.077 0 0 1-.004-.167c0-.031.026-.055.058-.056s.058.024.059.055c0 .055.002.11.004.163a.052.052 0 0 1-.017.041zM27.959 4a.06.06 0 0 1-.037.016 5.156 5.156 0 0 0-.171.015c-.032.003-.061-.018-.064-.049s.02-.058.052-.061l.175-.016a.059.059 0 0 1 .063.051.053.053 0 0 1-.017.043zm-8.176 7.7a.059.059 0 0 1-.043.016c-.032-.001-.058-.026-.057-.057.002-.055.004-.111.008-.167.002-.031.03-.054.062-.052s.057.028.055.059c-.004.055-.006.11-.008.163a.05.05 0 0 1-.017.037zm7.83-7.663a.064.064 0 0 1-.033.016 8.65 8.65 0 0 0-.17.026c-.032.005-.062-.015-.068-.045s.015-.059.047-.064a5.23 5.23 0 0 1 .174-.027.058.058 0 0 1 .066.047.054.054 0 0 1-.016.047zm-7.809 7.333a.06.06 0 0 1-.047.016c-.032-.003-.056-.03-.053-.06l.019-.166c.004-.03.033-.052.065-.048s.055.032.05.062c-.007.054-.014.108-.019.162a.056.056 0 0 1-.017.034zm7.466-7.275a.062.062 0 0 1-.029.015 5.636 5.636 0 0 0-.168.036c-.031.007-.063-.011-.07-.041s.012-.059.043-.067l.171-.037a.059.059 0 0 1 .069.043.054.054 0 0 1-.016.051zm-7.422 6.948a.063.063 0 0 1-.05.016.055.055 0 0 1-.048-.063l.03-.164c.006-.03.036-.05.068-.044s.052.035.046.065a3.215 3.215 0 0 0-.029.161.055.055 0 0 1-.016.03zm7.083-6.871a.051.051 0 0 1-.026.014 5.968 5.968 0 0 0-.167.045c-.031.009-.063-.008-.072-.037s.008-.06.039-.069l.169-.046a.058.058 0 0 1 .071.039.054.054 0 0 1-.015.054zm-7.018 6.546a.062.062 0 0 1-.054.015c-.031-.007-.051-.036-.044-.066a4.78 4.78 0 0 1 .04-.162c.008-.03.039-.048.071-.04s.05.037.043.067a4.6 4.6 0 0 0-.039.159.053.053 0 0 1-.016.027zm6.684-6.451a.048.048 0 0 1-.023.013l-.164.052c-.03.01-.064-.005-.074-.034s.005-.06.036-.07a8.15 8.15 0 0 1 .167-.053c.031-.009.063.006.073.035a.053.053 0 0 1-.014.056zm-6.6 6.131a.058.058 0 0 1-.057.014.056.056 0 0 1-.041-.068l.049-.16c.009-.029.042-.046.073-.037s.048.04.039.069a4.698 4.698 0 0 0-.048.157.055.055 0 0 1-.015.024zm6.271-6.022a.074.074 0 0 1-.021.013 7.639 7.639 0 0 0-.161.059c-.03.011-.064-.003-.076-.031s.003-.061.033-.072c.054-.021.109-.04.163-.06a.06.06 0 0 1 .075.032.056.056 0 0 1-.013.059zm-6.169 5.707a.061.061 0 0 1-.06.013.055.055 0 0 1-.037-.07c.018-.052.038-.105.058-.157.011-.029.044-.043.075-.033s.046.042.035.071l-.057.154a.052.052 0 0 1-.014.021zm5.845-5.585a.052.052 0 0 1-.019.012 7.454 7.454 0 0 0-.158.065c-.029.012-.064 0-.077-.028s0-.061.03-.073l.16-.066c.03-.012.064.001.076.029a.055.055 0 0 1-.012.061zm-5.727 5.274a.06.06 0 0 1-.063.012.054.054 0 0 1-.033-.072 5.09 5.09 0 0 1 .066-.154c.012-.028.047-.041.076-.03s.044.044.031.072l-.065.152a.05.05 0 0 1-.013.019zm5.409-5.14a.071.071 0 0 1-.017.011 7.394 7.394 0 0 0-.156.071c-.029.013-.064.002-.078-.026s-.002-.061.027-.074l.158-.071a.059.059 0 0 1 .077.027.052.052 0 0 1-.012.062zm-.313.144a.056.056 0 0 1-.015.01 7.34 7.34 0 0 0-.154.076c-.028.014-.064.004-.079-.023s-.004-.061.024-.075c.051-.026.103-.051.156-.076a.06.06 0 0 1 .078.024.052.052 0 0 1-.011.064zm-4.961 4.692a.06.06 0 0 1-.065.011c-.029-.012-.043-.045-.029-.073l.073-.151c.014-.028.049-.039.078-.026s.041.046.028.074c-.024.049-.049.099-.072.149a.066.066 0 0 1-.012.017zm4.653-4.538a7.282 7.282 0 0 0-.165.089c-.028.015-.064.006-.079-.021s-.006-.06.022-.075l.153-.081a.06.06 0 0 1 .079.022.053.053 0 0 1-.01.066zm-4.504 4.24a.06.06 0 0 1-.067.01.054.054 0 0 1-.026-.074l.08-.148c.015-.027.05-.037.079-.023s.039.048.024.075l-.079.146a.076.076 0 0 1-.011.014zm4.2-4.077a.06.06 0 0 1-.241.074.053.053 0 0 1 .02-.076l.151-.085a.06.06 0 0 1 .08.02.053.053 0 0 1-.009.067zm-4.038 3.785a.062.062 0 0 1-.07.009.054.054 0 0 1-.023-.075l.086-.145c.016-.026.052-.035.08-.02s.037.049.021.076c-.029.048-.058.095-.085.143a.04.04 0 0 1-.01.012zm3.74-3.614a5.19 5.19 0 0 0-.158.096c-.027.016-.063.009-.08-.017s-.009-.06.018-.076l.148-.088a.06.06 0 0 1 .08.018c.015.022.01.05-.008.068zm-3.565 3.329a.059.059 0 0 1-.071.008.054.054 0 0 1-.02-.076l.092-.141c.017-.026.053-.033.08-.017s.035.05.018.076l-.091.139-.009.01zm3.271-3.151a.055.055 0 0 1-.009.007l-.145.091c-.027.017-.063.01-.081-.015s-.011-.06.016-.077l.146-.092a.06.06 0 0 1 .081.016.052.052 0 0 1-.008.069zm-3.085 2.872a.06.06 0 0 1-.073.007.055.055 0 0 1-.017-.077c.032-.046.064-.092.098-.138.018-.025.054-.032.081-.014s.033.052.015.077a8.737 8.737 0 0 0-.104.145zm2.796-2.688c-.002.002-.005.005-.008.006l-.142.094c-.026.018-.063.012-.081-.013s-.013-.059.014-.077l.143-.095a.06.06 0 0 1 .081.014.054.054 0 0 1-.007.071zm-2.599 2.415a.06.06 0 0 1-.075.006.054.054 0 0 1-.014-.077c.033-.045.068-.09.103-.135.019-.025.056-.03.081-.012s.031.053.012.077c-.035.044-.068.089-.101.133a.043.043 0 0 1-.006.007zm2.314-2.223-.007.006a10.8 10.8 0 0 0-.14.098c-.026.018-.062.013-.082-.011s-.014-.059.012-.077l.141-.098c.026-.018.063-.013.081.012a.054.054 0 0 1-.006.072zm-2.108 1.957a.06.06 0 0 1-.076.005c-.026-.019-.031-.053-.011-.077l.107-.131c.02-.024.057-.028.082-.009s.03.054.01.078l-.106.13-.005.006zm1.829-1.76-.006.005-.138.101c-.025.019-.062.015-.082-.009s-.015-.059.01-.078a7.36 7.36 0 0 1 .139-.102.06.06 0 0 1 .082.01.054.054 0 0 1-.005.073zm-1.614 1.501a.06.06 0 0 1-.078.004.054.054 0 0 1-.009-.078l.111-.128c.021-.023.057-.027.082-.007s.028.054.007.078l-.11.127-.004.004zm1.339-1.296-.005.004a10.49 10.49 0 0 0-.135.104c-.025.019-.061.016-.082-.007s-.017-.058.008-.078l.136-.105a.061.061 0 0 1 .082.008.053.053 0 0 1-.004.074zm-1.116 1.043a.06.06 0 0 1-.079.003.054.054 0 0 1-.006-.078l.115-.125c.022-.023.058-.025.082-.005s.026.055.005.078a6.423 6.423 0 0 0-.114.124l-.003.003zm.23-.248c-.022.021-.057.022-.08.002s-.026-.056-.004-.078l.118-.122c.022-.022.059-.024.082-.003s.025.056.003.078l-.117.121-.002.002zm.616-.584-.004.003a8.723 8.723 0 0 0-.131.108c-.024.02-.061.018-.082-.005s-.019-.058.005-.078l.133-.11a.06.06 0 0 1 .082.006.053.053 0 0 1-.003.075zm-.378.343c-.022.021-.059.022-.082.001s-.024-.056-.002-.078l.122-.119c.022-.022.059-.022.082-.001s.023.056.001.078l-.121.118-.001.001z" style="fill:var(--color12, #4b4b4b)"/>
      <path fill="#fff" d="m19.84 9.321 3.378 3.203c-.323.13-.623.23-.901.304l-.058-.004-2.648-2.511a6.12 6.12 0 0 1 .23-.992zM25.369 4.07l3.469 3.289c.137-.306.247-.587.325-.851l.011-.041-2.755-2.612a6.994 6.994 0 0 0-1.051.214z" style="fill:var(--color1, #fff)"/>
      <path fill="#d9d9d9" d="M22.352 6.429c-.23.218-.452.445-.663.68a8.7 8.7 0 0 0-.972 1.278.073.073 0 0 0 .014.09l.149.142c.037.035.096.029.121-.011.062-.101.173-.253.183-.267.206-.299.433-.585.67-.863.231-.272.46-.546.72-.795.301-.288.64-.531.964-.794a10.35 10.35 0 0 1 1.011-.69c.049-.028.097-.057.148-.084a.069.069 0 0 0 .013-.112l-.158-.15a.08.08 0 0 0-.092-.013 9.546 9.546 0 0 0-1.546 1.087c-.192.162-.379.33-.561.502z" style="fill:var(--color13, #d9d9d9)"/>
      <path fill="#fff" d="M21.296 8.431a5.02 5.02 0 0 1-.418-.447.059.059 0 0 0-.093.002l-.068.096a.053.053 0 0 0 .001.062c.064.085.251.327.426.481a.121.121 0 0 0 .116.022.107.107 0 0 0 .074-.119l-.006-.037a.108.108 0 0 0-.032-.059zM24.505 5.388a4.836 4.836 0 0 0-.472-.396c-.032-.022-.03-.067.003-.088l.101-.064a.059.059 0 0 1 .065.001c.089.06.345.238.508.404a.104.104 0 0 1 .023.11.115.115 0 0 1-.126.07l-.039-.006a.113.113 0 0 1-.062-.03zM21.593 8.165c-.115-.081-.411-.313-.495-.6a.063.063 0 0 1 .01-.053l.068-.092a.036.036 0 0 1 .057 0c.079.103.305.385.515.508a.131.131 0 0 1 .067.115v.019a.134.134 0 0 1-.122.128.144.144 0 0 1-.099-.025zM24.224 5.67c-.085-.109-.33-.39-.633-.47a.07.07 0 0 0-.056.01l-.097.065a.032.032 0 0 0 0 .054c.108.074.406.29.535.488.026.04.072.064.122.063h.02a.136.136 0 0 0 .135-.116.128.128 0 0 0-.026-.094zM21.525 7.02l.091-.115c.017-.022.052-.021.067.001.066.097.239.323.522.508a.132.132 0 0 1 .051.16c-.04.104-.212.14-.29.061a2.771 2.771 0 0 1-.446-.574.038.038 0 0 1 .004-.041zM23.017 5.606l-.122.087a.038.038 0 0 0 .001.064c.102.063.34.227.536.495a.15.15 0 0 0 .169.049c.11-.038.148-.201.065-.275a2.888 2.888 0 0 0-.605-.423.044.044 0 0 0-.044.004zM21.957 6.519l.072-.068a.076.076 0 0 1 .103 0l.564.535a.066.066 0 0 1 0 .098l-.105.1a.075.075 0 0 1-.106-.003l-.531-.566a.067.067 0 0 1 .003-.095zM22.488 6.015l-.072.068a.066.066 0 0 0 0 .098l.564.535a.076.076 0 0 0 .103 0l.105-.1a.067.067 0 0 0-.003-.101l-.597-.503a.076.076 0 0 0-.1.003zM3.65 31.313c-.79 0-1.414-.15-1.873-.45-.521-.363-.782-.877-.782-1.541 0-.411.134-.79.403-1.138.284-.348.632-.521 1.043-.521.3 0 .561.111.782.332.19.19.284.411.284.664 0 .19-.039.363-.119.521a1.829 1.829 0 0 1-.284.45c-.221.221-.49.332-.806.332-.363 0-.608-.142-.735-.427-.016.3.126.529.427.687.316.174.68.261 1.09.261h.19a.773.773 0 0 0 .19-.024c3.603-.648 5.776-4.211 6.519-10.69.016-.126.032-.261.047-.403.032-.142.055-.292.071-.45-.395.743-.79 1.414-1.185 2.015a14.42 14.42 0 0 1-1.209 1.564c-1.122 1.264-2.22 1.896-3.295 1.896-.679 0-1.209-.284-1.588-.853-.348-.49-.521-1.177-.521-2.062 0-1.059.332-2.355.996-3.887-2.07-.142-3.105-1.272-3.105-3.39 0-1.233.34-2.528 1.019-3.887.269-.521.553-1.003.853-1.446s.624-.838.972-1.185c.885-.932 1.801-1.399 2.75-1.399 1.77 0 2.655 1.043 2.655 3.129 0 1.122-.348 2.347-1.043 3.674-.363.68-.743 1.351-1.138 2.015-.395.648-.79 1.304-1.185 1.967a12.177 12.177 0 0 0 2.252-.664.327.327 0 0 1 .142-.024c.111 0 .166.055.166.166 0 .126-.071.213-.213.261-.917.363-1.778.608-2.584.735-.822 1.58-1.233 2.987-1.233 4.219 0 .585.087 1.075.261 1.47.221.474.553.711.996.711.727 0 1.596-.624 2.607-1.873 1.391-1.723 2.528-3.706 3.413-5.95 2.592-6.621 5.167-10.098 7.727-10.43h.095c.126 0 .19.04.19.119 0 .126-.055.19-.166.19-1.343.142-2.758 1.659-4.243 4.551-1.422 2.781-2.299 5.547-2.631 8.296-.205 1.88-.466 3.5-.782 4.859-.3 1.359-.648 2.457-1.043 3.295-1.327 2.829-3.453 4.267-6.376 4.314zm-.166-14.152 1.991-3.911c.774-1.517 1.28-2.797 1.517-3.84.095-.411.142-.782.142-1.114 0-1.027-.411-1.541-1.233-1.541-.569 0-1.217.348-1.944 1.043-.759.743-1.414 1.73-1.967 2.963-.284.632-.498 1.24-.64 1.825a7.997 7.997 0 0 0-.19 1.683c0 1.754.774 2.718 2.323 2.892zm13.735 6.543c-1.154 0-1.73-.703-1.73-2.11 0-.695.166-1.43.498-2.204a7.833 7.833 0 0 1 2.015-2.844c.853-.759 1.659-1.138 2.418-1.138 1.169 0 1.754.687 1.754 2.062 0 .711-.174 1.462-.521 2.252a8.314 8.314 0 0 1-1.778 2.584c-.964.932-1.849 1.399-2.655 1.399zm.38-.522c.363 0 .751-.15 1.161-.45.521-.379 1.114-1.169 1.778-2.37.727-1.296 1.09-2.339 1.09-3.129 0-.711-.3-1.067-.901-1.067-.474 0-1.011.3-1.612.901-.585.585-1.082 1.327-1.493 2.228-.553 1.185-.83 2.133-.83 2.844 0 .695.269 1.043.806 1.043zm6.425.498c-1.011 0-1.517-.474-1.517-1.422 0-.332.095-.774.284-1.327.19-.569.458-1.24.806-2.015l1.304-2.868c.142-.332.45-.498.924-.498h1.422c-.553.411-1.059 1.075-1.517 1.991-.174.348-.387.782-.64 1.304-.237.506-.514 1.09-.83 1.754-.3.616-.45 1.169-.45 1.659 0 .506.174.759.521.759.379 0 .83-.3 1.351-.901.869-1.011 2.039-3.034 3.508-6.068.174-.332.474-.498.901-.498h1.28c-.521.427-1.067 1.209-1.636 2.347-.79 1.596-1.264 2.813-1.422 3.65-.016.095-.032.182-.047.261v.237c0 .616.213.924.64.924.458 0 .996-.45 1.612-1.351l.356.166c-.853 1.264-1.699 1.896-2.536 1.896-.885 0-1.327-.561-1.327-1.683 0-.427.079-.877.237-1.351-1.169 2.023-2.244 3.034-3.224 3.034zm7.017.19c.3-.759.695-1.707 1.185-2.844a530.055 530.055 0 0 0 1.707-3.887c.126-.316.245-.569.356-.759.126-.19.237-.34.332-.45.205-.237.482-.332.83-.284l.498.071c.111.016.205.032.284.047a.983.983 0 0 0 .237-.024c-.316.158-.687.608-1.114 1.351-.411.727-.869 1.723-1.375 2.987.174-.221.395-.514.664-.877.269-.379.608-.814 1.019-1.304.458-.537.932-1.035 1.422-1.493s.964-.687 1.422-.687c.363 0 .624.119.782.356s.237.506.237.806c0 .363-.142.687-.427.972s-.561.427-.83.427c-.111 0-.229-.024-.356-.071-.111-.047-.166-.119-.166-.213 0-.079.016-.15.047-.213a.689.689 0 0 0 .047-.261c0-.237-.111-.356-.332-.356-.079 0-.19.024-.332.071-.126.032-.3.158-.521.379-.443.411-.924.909-1.446 1.493a15.572 15.572 0 0 0-1.446 1.92 10.953 10.953 0 0 0-1.09 2.347c-.079.237-.316.363-.711.379-.537.032-.845.071-.924.119zm9.693-.071c-.79 0-1.399-.237-1.825-.711a2.077 2.077 0 0 1-.521-1.422c0-.806.253-1.209.759-1.209a.76.76 0 0 1 .521.213.75.75 0 0 1 .237.545.48.48 0 0 1-.095.308c-.205.253-.308.529-.308.83s.095.545.284.735c.205.205.466.308.782.308.332 0 .632-.111.901-.332.364-.332.545-.79.545-1.375 0-.506-.134-1.075-.403-1.707a14.085 14.085 0 0 1-.403-.616 88.995 88.995 0 0 1-.498-.901 2.153 2.153 0 0 1-.237-.569 3.844 3.844 0 0 1-.047-.593c0-.664.245-1.193.735-1.588.506-.411 1.154-.616 1.944-.616.221 0 .435.024.64.071.221.047.419.134.593.261.364.269.545.6.545.996 0 .174-.032.332-.095.474-.142.411-.45.616-.924.616-.521 0-.782-.269-.782-.806 0-.158.024-.292.071-.403.047-.158.221-.316.521-.474-.111-.205-.316-.308-.616-.308-.269 0-.466.063-.593.19a1.6 1.6 0 0 0-.569 1.256c0 .348.095.727.284 1.138.032.063.34.561.924 1.493.395.632.593 1.161.593 1.588 0 .68-.316 1.28-.948 1.801-.632.537-1.304.806-2.015.806z" style="fill:var(--color1, #fff)"/>
    </symbol>
    <symbol id="icon-Phone" viewBox="0 0 32 32">
      <path fill="none" stroke="#fff" stroke-width="2.667" d="M12.727 11.524c.538 1.944-.067 3.971-1.393 5.221-.251.237-.332.62-.135.904a12.635 12.635 0 0 0 3.145 3.148c.284.198.669.116.905-.137 1.248-1.336 3.281-1.948 5.23-1.408 2.627.728 4.106 3.273 3.303 5.685-2.353 7.067-11.414.062-14.097-2.622C6.938 19.566.041 10.557 7.047 8.22c2.41-.804 4.953.676 5.681 3.305z" style="stroke:var(--color1, #fff)"/>
    </symbol>
    <symbol id="icon-Plus_rectangle" viewBox="0 0 32 32">
      <path fill="none" stroke="#fff" stroke-width="2.667" d="M4 9.333A5.333 5.333 0 0 1 9.333 4h13.333a5.333 5.333 0 0 1 5.333 5.333v13.333a5.333 5.333 0 0 1-5.333 5.333H9.333A5.333 5.333 0 0 1 4 22.666V9.333z" style="stroke:var(--color1, #fff)"/>
      <path fill="none" stroke="#fff" stroke-linecap="round" stroke-width="2.667" d="M10.667 16H16m0 0h5.333M16 16v-5.333M16 16v5.333" style="stroke:var(--color1, #fff)"/>
    </symbol>
    <symbol id="icon-Send" viewBox="0 0 32 32">
      <path fill="none" stroke="#fff" stroke-linecap="round" stroke-linejoin="round" stroke-width="2.667" d="M25.194 4.82a1.467 1.467 0 0 1 1.813 1.813l-5.333 18.665c-.571 2-3.243 2.376-4.344.611l-3.73-5.98a5.337 5.337 0 0 0-1.703-1.703l-5.98-3.73c-1.765-1.101-1.389-3.773.611-4.344l18.665-5.333zM13.59 18.237l4.714-4.714" style="stroke:var(--color1, #fff)"/>
    </symbol>
    <symbol id="icon-telegram" viewBox="0 0 32 32">
      <path d="M16 0c8.837 0 16 7.163 16 16s-7.163 16-16 16S0 24.837 0 16 7.163 0 16 0z" style="fill:var(--color4, #000)"/>
      <path fill="#fff" d="m22.4 10.082-2.404 12.552s-.336.87-1.261.453l-5.547-4.405-.026-.013c.749-.697 6.56-6.107 6.814-6.352.393-.38.149-.606-.307-.319l-8.583 5.644-3.311-1.154s-.521-.192-.571-.609.588-.644.588-.644l13.499-5.484s1.109-.505 1.109.331z" style="fill:var(--color1, #fff)"/>
    </symbol>
    <symbol id="icon-facebook" viewBox="0 0 32 32">
      <path d="M16 0c8.837 0 16 7.163 16 16s-7.163 16-16 16S0 24.837 0 16 7.163 0 16 0z" style="fill:var(--color4, #000)"/>
      <path fill="#fff" d="M17.326 16.292h2.978l.467-3.043h-3.446v-1.663c0-1.264.411-2.385 1.586-2.385H20.8V6.545c-.332-.045-1.034-.144-2.36-.144-2.769 0-4.393 1.471-4.393 4.824v2.025H11.2v3.043h2.847v8.365c.564.085 1.135.143 1.721.143.53 0 1.047-.049 1.558-.118v-8.39z" style="fill:var(--color1, #fff)"/>
    </symbol>
    <symbol id="icon-instagram" viewBox="0 0 32 32">
      <path d="M16 0c8.837 0 16 7.163 16 16s-7.163 16-16 16S0 24.837 0 16 7.163 0 16 0z" style="fill:var(--color4, #000)"/>
      <path fill="#fff" d="M16 9.446h3.277c.771 0 1.157.193 1.446.289.385.193.675.289.964.578s.482.578.578.964c.096.289.193.675.289 1.446v6.554c0 .771-.193 1.157-.289 1.446-.193.385-.289.675-.578.964s-.578.482-.964.578c-.289.096-.675.193-1.446.289h-6.554c-.771 0-1.157-.193-1.446-.289-.386-.193-.675-.289-.964-.578s-.482-.578-.578-.964c-.096-.289-.193-.675-.289-1.446v-6.554c0-.771.193-1.157.289-1.446.193-.386.289-.675.578-.964s.578-.482.964-.578c.289-.096.675-.193 1.446-.289H16zM16 8h-3.277c-.867 0-1.446.193-1.928.386s-.964.482-1.446.964-.675.867-.964 1.446c-.193.482-.289 1.06-.386 1.928v6.554c0 .867.193 1.446.386 1.928s.482.964.964 1.446.867.675 1.446.964c.482.193 1.06.289 1.928.386h6.554c.867 0 1.446-.193 1.928-.386s.964-.482 1.446-.964.675-.867.964-1.446c.193-.482.289-1.06.386-1.928v-6.554c0-.867-.193-1.446-.386-1.928s-.482-.964-.964-1.446-.867-.675-1.446-.964c-.482-.193-1.06-.289-1.928-.386H16z" style="fill:var(--color1, #fff)"/>
      <path fill="#fff" d="M16 11.855c-2.313 0-4.145 1.831-4.145 4.145s1.831 4.145 4.145 4.145c2.313 0 4.145-1.831 4.145-4.145S18.314 11.855 16 11.855zm0 6.844A2.694 2.694 0 0 1 13.301 16 2.694 2.694 0 0 1 16 13.301 2.694 2.694 0 0 1 18.699 16c0 1.446-1.253 2.699-2.699 2.699zM20.241 12.723a.965.965 0 1 0-.001-1.929.965.965 0 0 0 .001 1.929z" style="fill:var(--color1, #fff)"/>
    </symbol>
  </defs>
</svg>
